<svg xmlns="http://www.w3.org/2000/svg" viewBox="0 0 1820 500" width="1820" height="500"><title>Мост с фиксированной скважностью и повышающий каскад</title><rect x="0" y="0" width="1820" height="500" fill="#ffffff"/><g stroke="#000" fill="none" stroke-linecap="round" stroke-linejoin="round"><line x1="120" y1="70" x2="300" y2="70" stroke-width="2.0"/><line x1="120" y1="410" x2="830" y2="410" stroke-width="2.0"/><circle cx="114" cy="70" r="6" fill="#fff" stroke-width="2.0"/><circle cx="114" cy="410" r="6" fill="#fff" stroke-width="2.0"/><text x="98" y="54" font-family="Arial, Helvetica, sans-serif" font-size="17" text-anchor="end" fill="#000" stroke="none">ВВ+</text><text x="98" y="436" font-family="Arial, Helvetica, sans-serif" font-size="17" text-anchor="end" fill="#000" stroke="none">ВВ−</text><line x1="174" y1="234.5" x2="226" y2="234.5" stroke-width="2.4"/><line x1="174" y1="245.5" x2="226" y2="245.5" stroke-width="2.4"/><line x1="200" y1="70" x2="200" y2="234.5" stroke-width="2.0"/><line x1="200" y1="245.5" x2="200" y2="410" stroke-width="2.0"/><circle cx="200" cy="70" r="4.5" fill="#000" stroke="none"/><circle cx="200" cy="410" r="4.5" fill="#000" stroke="none"/><text x="232" y="236" font-family="Arial, Helvetica, sans-serif" font-size="17" text-anchor="start" fill="#000" stroke="none">C1</text><circle cx="292" cy="128" r="26" fill="none" stroke-width="2.4"/><line x1="252" y1="128" x2="280" y2="128" stroke-width="2.0"/><line x1="280" y1="114" x2="280" y2="142" stroke-width="2.4"/><line x1="287" y1="112" x2="287" y2="120" stroke-width="2.4"/><line x1="287" y1="124" x2="287" y2="132" stroke-width="2.4"/><line x1="287" y1="136" x2="287" y2="144" stroke-width="2.4"/><polyline points="287,116 300,116 300,94" stroke-width="2.4" fill="none"/><polyline points="287,140 300,140 300,162" stroke-width="2.4" fill="none"/><polyline points="287,128 300,128 300,140" stroke-width="2.4" fill="none"/><polygon points="291,128 298,123.5 298,132.5" fill="#000" stroke="none"/><text x="316" y="100" font-family="Arial, Helvetica, sans-serif" font-size="17" text-anchor="start" fill="#000" stroke="none">VT1</text><circle cx="292" cy="324" r="26" fill="none" stroke-width="2.4"/><line x1="252" y1="324" x2="280" y2="324" stroke-width="2.0"/><line x1="280" y1="310" x2="280" y2="338" stroke-width="2.4"/><line x1="287" y1="308" x2="287" y2="316" stroke-width="2.4"/><line x1="287" y1="320" x2="287" y2="328" stroke-width="2.4"/><line x1="287" y1="332" x2="287" y2="340" stroke-width="2.4"/><polyline points="287,312 300,312 300,290" stroke-width="2.4" fill="none"/><polyline points="287,336 300,336 300,358" stroke-width="2.4" fill="none"/><polyline points="287,324 300,324 300,336" stroke-width="2.4" fill="none"/><polygon points="291,324 298,319.5 298,328.5" fill="#000" stroke="none"/><text x="316" y="296" font-family="Arial, Helvetica, sans-serif" font-size="17" text-anchor="start" fill="#000" stroke="none">VT2</text><line x1="300" y1="70" x2="300" y2="94" stroke-width="2.0"/><line x1="300" y1="162" x2="300" y2="290" stroke-width="2.0"/><line x1="300" y1="358" x2="300" y2="410" stroke-width="2.0"/><line x1="300" y1="222" x2="390" y2="222" stroke-width="2.0"/><path d="M 390,222 A 10.0,10.0 0 0 1 410.0,222 A 10.0,10.0 0 0 1 430.0,222 A 10.0,10.0 0 0 1 450.0,222 A 10.0,10.0 0 0 1 470.0,222" stroke-width="2.4" fill="none"/><line x1="470" y1="222" x2="540" y2="222" stroke-width="2.0"/><text x="430" y="194" font-family="Arial, Helvetica, sans-serif" font-size="17" text-anchor="middle" fill="#000" stroke="none">L1</text><circle cx="300" cy="222" r="4.5" fill="#000" stroke="none"/><polyline points="540,222 540,100 830,100" stroke-width="2.0" fill="none"/><line x1="584" y1="259.5" x2="636" y2="259.5" stroke-width="2.4"/><line x1="584" y1="270.5" x2="636" y2="270.5" stroke-width="2.4"/><line x1="610" y1="100" x2="610" y2="259.5" stroke-width="2.0"/><line x1="610" y1="270.5" x2="610" y2="410" stroke-width="2.0"/><circle cx="610" cy="100" r="4.5" fill="#000" stroke="none"/><circle cx="610" cy="410" r="4.5" fill="#000" stroke="none"/><text x="642" y="262" font-family="Arial, Helvetica, sans-serif" font-size="17" text-anchor="start" fill="#000" stroke="none">C2</text><text x="760" y="82" font-family="Arial, Helvetica, sans-serif" font-size="15" text-anchor="middle" fill="#000" stroke="none">промежуточное звено</text><circle cx="682" cy="140" r="26" fill="none" stroke-width="2.4"/><line x1="642" y1="140" x2="670" y2="140" stroke-width="2.0"/><line x1="670" y1="126" x2="670" y2="154" stroke-width="2.4"/><line x1="677" y1="124" x2="677" y2="132" stroke-width="2.4"/><line x1="677" y1="136" x2="677" y2="144" stroke-width="2.4"/><line x1="677" y1="148" x2="677" y2="156" stroke-width="2.4"/><polyline points="677,128 690,128 690,106" stroke-width="2.4" fill="none"/><polyline points="677,152 690,152 690,174" stroke-width="2.4" fill="none"/><polyline points="677,140 690,140 690,152" stroke-width="2.4" fill="none"/><polygon points="681,140 688,135.5 688,144.5" fill="#000" stroke="none"/><text x="706" y="216" font-family="Arial, Helvetica, sans-serif" font-size="17" text-anchor="start" fill="#000" stroke="none">VT3</text><circle cx="682" cy="324" r="26" fill="none" stroke-width="2.4"/><line x1="642" y1="324" x2="670" y2="324" stroke-width="2.0"/><line x1="670" y1="310" x2="670" y2="338" stroke-width="2.4"/><line x1="677" y1="308" x2="677" y2="316" stroke-width="2.4"/><line x1="677" y1="320" x2="677" y2="328" stroke-width="2.4"/><line x1="677" y1="332" x2="677" y2="340" stroke-width="2.4"/><polyline points="677,312 690,312 690,290" stroke-width="2.4" fill="none"/><polyline points="677,336 690,336 690,358" stroke-width="2.4" fill="none"/><polyline points="677,324 690,324 690,336" stroke-width="2.4" fill="none"/><polygon points="681,324 688,319.5 688,328.5" fill="#000" stroke="none"/><text x="706" y="296" font-family="Arial, Helvetica, sans-serif" font-size="17" text-anchor="start" fill="#000" stroke="none">VT4</text><line x1="690" y1="100" x2="690" y2="106" stroke-width="2.0"/><line x1="690" y1="174" x2="690" y2="290" stroke-width="2.0"/><line x1="690" y1="358" x2="690" y2="410" stroke-width="2.0"/><circle cx="822" cy="140" r="26" fill="none" stroke-width="2.4"/><line x1="782" y1="140" x2="810" y2="140" stroke-width="2.0"/><line x1="810" y1="126" x2="810" y2="154" stroke-width="2.4"/><line x1="817" y1="124" x2="817" y2="132" stroke-width="2.4"/><line x1="817" y1="136" x2="817" y2="144" stroke-width="2.4"/><line x1="817" y1="148" x2="817" y2="156" stroke-width="2.4"/><polyline points="817,128 830,128 830,106" stroke-width="2.4" fill="none"/><polyline points="817,152 830,152 830,174" stroke-width="2.4" fill="none"/><polyline points="817,140 830,140 830,152" stroke-width="2.4" fill="none"/><polygon points="821,140 828,135.5 828,144.5" fill="#000" stroke="none"/><text x="846" y="216" font-family="Arial, Helvetica, sans-serif" font-size="17" text-anchor="start" fill="#000" stroke="none">VT5</text><circle cx="822" cy="324" r="26" fill="none" stroke-width="2.4"/><line x1="782" y1="324" x2="810" y2="324" stroke-width="2.0"/><line x1="810" y1="310" x2="810" y2="338" stroke-width="2.4"/><line x1="817" y1="308" x2="817" y2="316" stroke-width="2.4"/><line x1="817" y1="320" x2="817" y2="328" stroke-width="2.4"/><line x1="817" y1="332" x2="817" y2="340" stroke-width="2.4"/><polyline points="817,312 830,312 830,290" stroke-width="2.4" fill="none"/><polyline points="817,336 830,336 830,358" stroke-width="2.4" fill="none"/><polyline points="817,324 830,324 830,336" stroke-width="2.4" fill="none"/><polygon points="821,324 828,319.5 828,328.5" fill="#000" stroke="none"/><text x="846" y="296" font-family="Arial, Helvetica, sans-serif" font-size="17" text-anchor="start" fill="#000" stroke="none">VT6</text><line x1="830" y1="100" x2="830" y2="106" stroke-width="2.0"/><line x1="830" y1="174" x2="830" y2="290" stroke-width="2.0"/><line x1="830" y1="358" x2="830" y2="410" stroke-width="2.0"/><circle cx="690" cy="100" r="4.5" fill="#000" stroke="none"/><circle cx="690" cy="410" r="4.5" fill="#000" stroke="none"/><circle cx="830" cy="410" r="4.5" fill="#000" stroke="none"/><path d="M 1060,190 A 10.0,10.0 0 0 1 1060,210.0 A 10.0,10.0 0 0 1 1060,230.0 A 10.0,10.0 0 0 1 1060,250.0 A 10.0,10.0 0 0 1 1060,270.0" stroke-width="2.4" fill="none"/><line x1="1080" y1="160" x2="1080" y2="300" stroke-width="2.4"/><path d="M 1100,190 A 10.0,10.0 0 0 0 1100,210.0 A 10.0,10.0 0 0 0 1100,230.0 A 10.0,10.0 0 0 0 1100,250.0 A 10.0,10.0 0 0 0 1100,270.0" stroke-width="2.4" fill="none"/><text x="1080" y="326" font-family="Arial, Helvetica, sans-serif" font-size="17" text-anchor="middle" fill="#000" stroke="none">T1</text><line x1="690" y1="190" x2="1060" y2="190" stroke-width="2.0"/><circle cx="690" cy="190" r="4.5" fill="#000" stroke="none"/><line x1="830" y1="270" x2="1060" y2="270" stroke-width="2.0"/><circle cx="830" cy="270" r="4.5" fill="#000" stroke="none"/><circle cx="1322" cy="128" r="26" fill="none" stroke-width="2.4"/><line x1="1282" y1="128" x2="1310" y2="128" stroke-width="2.0"/><line x1="1310" y1="114" x2="1310" y2="142" stroke-width="2.4"/><line x1="1317" y1="112" x2="1317" y2="120" stroke-width="2.4"/><line x1="1317" y1="124" x2="1317" y2="132" stroke-width="2.4"/><line x1="1317" y1="136" x2="1317" y2="144" stroke-width="2.4"/><polyline points="1317,116 1330,116 1330,94" stroke-width="2.4" fill="none"/><polyline points="1317,140 1330,140 1330,162" stroke-width="2.4" fill="none"/><polyline points="1317,128 1330,128 1330,140" stroke-width="2.4" fill="none"/><polygon points="1321,128 1328,123.5 1328,132.5" fill="#000" stroke="none"/><text x="1346" y="100" font-family="Arial, Helvetica, sans-serif" font-size="17" text-anchor="start" fill="#000" stroke="none">VT7</text><circle cx="1322" cy="324" r="26" fill="none" stroke-width="2.4"/><line x1="1282" y1="324" x2="1310" y2="324" stroke-width="2.0"/><line x1="1310" y1="310" x2="1310" y2="338" stroke-width="2.4"/><line x1="1317" y1="308" x2="1317" y2="316" stroke-width="2.4"/><line x1="1317" y1="320" x2="1317" y2="328" stroke-width="2.4"/><line x1="1317" y1="332" x2="1317" y2="340" stroke-width="2.4"/><polyline points="1317,312 1330,312 1330,290" stroke-width="2.4" fill="none"/><polyline points="1317,336 1330,336 1330,358" stroke-width="2.4" fill="none"/><polyline points="1317,324 1330,324 1330,336" stroke-width="2.4" fill="none"/><polygon points="1321,324 1328,319.5 1328,328.5" fill="#000" stroke="none"/><text x="1346" y="296" font-family="Arial, Helvetica, sans-serif" font-size="17" text-anchor="start" fill="#000" stroke="none">VT8</text><line x1="1330" y1="70" x2="1330" y2="94" stroke-width="2.0"/><line x1="1330" y1="162" x2="1330" y2="290" stroke-width="2.0"/><line x1="1330" y1="358" x2="1330" y2="410" stroke-width="2.0"/><circle cx="1462" cy="128" r="26" fill="none" stroke-width="2.4"/><line x1="1422" y1="128" x2="1450" y2="128" stroke-width="2.0"/><line x1="1450" y1="114" x2="1450" y2="142" stroke-width="2.4"/><line x1="1457" y1="112" x2="1457" y2="120" stroke-width="2.4"/><line x1="1457" y1="124" x2="1457" y2="132" stroke-width="2.4"/><line x1="1457" y1="136" x2="1457" y2="144" stroke-width="2.4"/><polyline points="1457,116 1470,116 1470,94" stroke-width="2.4" fill="none"/><polyline points="1457,140 1470,140 1470,162" stroke-width="2.4" fill="none"/><polyline points="1457,128 1470,128 1470,140" stroke-width="2.4" fill="none"/><polygon points="1461,128 1468,123.5 1468,132.5" fill="#000" stroke="none"/><text x="1486" y="100" font-family="Arial, Helvetica, sans-serif" font-size="17" text-anchor="start" fill="#000" stroke="none">VT9</text><circle cx="1462" cy="324" r="26" fill="none" stroke-width="2.4"/><line x1="1422" y1="324" x2="1450" y2="324" stroke-width="2.0"/><line x1="1450" y1="310" x2="1450" y2="338" stroke-width="2.4"/><line x1="1457" y1="308" x2="1457" y2="316" stroke-width="2.4"/><line x1="1457" y1="320" x2="1457" y2="328" stroke-width="2.4"/><line x1="1457" y1="332" x2="1457" y2="340" stroke-width="2.4"/><polyline points="1457,312 1470,312 1470,290" stroke-width="2.4" fill="none"/><polyline points="1457,336 1470,336 1470,358" stroke-width="2.4" fill="none"/><polyline points="1457,324 1470,324 1470,336" stroke-width="2.4" fill="none"/><polygon points="1461,324 1468,319.5 1468,328.5" fill="#000" stroke="none"/><text x="1486" y="296" font-family="Arial, Helvetica, sans-serif" font-size="17" text-anchor="start" fill="#000" stroke="none">VT10</text><line x1="1470" y1="70" x2="1470" y2="94" stroke-width="2.0"/><line x1="1470" y1="162" x2="1470" y2="290" stroke-width="2.0"/><line x1="1470" y1="358" x2="1470" y2="410" stroke-width="2.0"/><line x1="1100" y1="190" x2="1330" y2="190" stroke-width="2.0"/><circle cx="1330" cy="190" r="4.5" fill="#000" stroke="none"/><line x1="1100" y1="270" x2="1470" y2="270" stroke-width="2.0"/><circle cx="1470" cy="270" r="4.5" fill="#000" stroke="none"/><line x1="1330" y1="70" x2="1744" y2="70" stroke-width="2.0"/><line x1="1330" y1="410" x2="1744" y2="410" stroke-width="2.0"/><line x1="1544" y1="234.5" x2="1596" y2="234.5" stroke-width="2.4"/><line x1="1544" y1="245.5" x2="1596" y2="245.5" stroke-width="2.4"/><line x1="1570" y1="70" x2="1570" y2="234.5" stroke-width="2.0"/><line x1="1570" y1="245.5" x2="1570" y2="410" stroke-width="2.0"/><circle cx="1570" cy="70" r="4.5" fill="#000" stroke="none"/><circle cx="1570" cy="410" r="4.5" fill="#000" stroke="none"/><text x="1602" y="236" font-family="Arial, Helvetica, sans-serif" font-size="17" text-anchor="start" fill="#000" stroke="none">C3</text><line x1="1670" y1="210" x2="1670" y2="224" stroke-width="2.0"/><line x1="1670" y1="256" x2="1670" y2="270" stroke-width="2.0"/><line x1="1652" y1="224" x2="1688" y2="224" stroke-width="2.4"/><line x1="1662" y1="232" x2="1678" y2="232" stroke-width="4.2"/><line x1="1652" y1="248" x2="1688" y2="248" stroke-width="2.4"/><line x1="1662" y1="256" x2="1678" y2="256" stroke-width="4.2"/><line x1="1655" y1="240" x2="1685" y2="240" stroke-width="1.6" stroke-dasharray="7 5"/><line x1="1670" y1="70" x2="1670" y2="210" stroke-width="2.0"/><line x1="1670" y1="270" x2="1670" y2="410" stroke-width="2.0"/><circle cx="1670" cy="70" r="4.5" fill="#000" stroke="none"/><circle cx="1670" cy="410" r="4.5" fill="#000" stroke="none"/><text x="1696" y="246" font-family="Arial, Helvetica, sans-serif" font-size="17" text-anchor="start" fill="#000" stroke="none">GB1</text><circle cx="1750" cy="70" r="6" fill="#fff" stroke-width="2.0"/><circle cx="1750" cy="410" r="6" fill="#fff" stroke-width="2.0"/><text x="1766" y="54" font-family="Arial, Helvetica, sans-serif" font-size="17" text-anchor="start" fill="#000" stroke="none">НВ+</text><text x="1766" y="436" font-family="Arial, Helvetica, sans-serif" font-size="17" text-anchor="start" fill="#000" stroke="none">НВ−</text></g></svg>